# xmcd CD database file generated by Grip 3.2.0
# 
# Track frame offsets:
#       150
#       10945
#       27487
#       51595
#       64282
#       79682
#       100715
#       113250
#       135970
#       152627
# 
# Disc length: 2332 seconds
# 
# Revision: 15
# Processed by: cddbd v1.5.2PL0 Copyright (c) Steve Scherf et al.
# Submitted via: Grip 3.2.0
# 
DISCID=74091a0a
DTITLE=Stevie Ray Vaughan And Double Trouble - Texas Flood
DYEAR=1983
DGENRE=Rock
TTITLE0=Love Struck Baby
TTITLE1=Pride And Joy
TTITLE2=Texas Flood
TTITLE3=Tell Me
TTITLE4=Testify
TTITLE5=Rude Mood
TTITLE6=Mary Had A Little Lamb
TTITLE7=Dirty Pool
TTITLE8=I'm Cryin'
TTITLE9=Lenny
EXTD=YEAR: 1983
EXTT0=
EXTT1=
EXTT2=
EXTT3=
EXTT4=
EXTT5=
EXTT6=
EXTT7=
EXTT8=
EXTT9=
PLAYORDER=
